<svg width="1000" height="1000" xmlns="http://www.w3.org/2000/svg">

 <g>
  <title>background</title>
  <rect fill="none" id="canvas_background" height="1002" width="1002" y="-1" x="-1"/>
 </g>
 <g>
  <title>Layer 1</title>
  <path stroke="null" id="svg_1" d="m181.384484,800.712983c-6.003962,-4.475116 -13.709752,-4.475116 -19.713472,0c-2.245707,1.691966 -54.815045,41.696681 -54.815045,104.514568c0,29.498601 11.889563,52.393647 33.494143,64.482468c14.891423,8.35001 29.451968,8.623016 31.177517,8.623016s16.286336,-0.273006 31.177759,-8.623016c21.60458,-12.088821 33.494143,-34.983867 33.494143,-64.482468c0,-62.817887 -52.569581,-102.822603 -54.815045,-104.514568zm-9.904056,135.705135c-0.614556,-0.027384 -8.154786,-0.409369 -15.293462,-4.393522c-9.005822,-5.048233 -13.024034,-13.316649 -13.024034,-26.797045c0,-26.715451 17.018769,-48.628011 28.341217,-60.280079c11.322206,11.679452 28.388416,33.673886 28.388416,60.280079c0,27.53391 -19.784391,30.999435 -28.412136,31.190567z"/>
  <path stroke="null" id="svg_2" d="m952.822805,20.499825l-462.523372,0c-22.119171,0 -40.065155,16.309883 -40.065155,36.412491s17.945984,36.412491 40.065155,36.412491l183.945005,0l0,190.359646l-82.269256,0c-22.119171,0 -40.065155,16.309883 -40.065155,36.412491l0,15.740877l-263.970612,0c-93.850757,0 -271.327108,51.25228 -271.327108,245.215306l0,156.554775c0,20.102608 17.945984,36.412491 40.065155,36.412491l231.261953,0c22.119171,0 40.065155,-16.309883 40.065155,-36.412491l0,-94.065601l223.905456,0l0,41.864654c0,20.103093 17.945984,36.412491 40.065155,36.412491l255.207027,0c22.119171,0 40.065155,-16.309397 40.065155,-36.412491l0,-365.310011c0,-20.102608 -17.945984,-36.412491 -40.065155,-36.412491l-92.80746,0l0,-190.359646l198.448057,0c22.119171,0 40.065155,-16.309883 40.065155,-36.412491s-17.945984,-36.412491 -40.065155,-36.412491zm-664.88339,550.217494c-22.119705,0 -40.065155,16.309883 -40.065155,36.412491l0,94.065601l-151.131642,0l0,-120.142285c0,-166.274483 171.737953,-172.248073 191.196798,-172.390325l263.970612,0l0,162.054518l-263.970612,0zm519.177638,78.277145l-175.076716,0l0,-292.48503l175.076716,0l0,292.48503z"/>
 </g>
</svg>