<svg width="1000" height="1001.0000000000001" xmlns="http://www.w3.org/2000/svg">

 <g>
  <title>background</title>
  <rect fill="none" id="canvas_background" height="1003" width="1002" y="-1" x="-1"/>
 </g>
 <g>
  <title>Layer 1</title>
  <g stroke="null" id="svg_1">
   <g stroke="null" id="svg_2">
    <path stroke="null" id="svg_3" d="m636.606992,548.026722l-0.159625,-404.479557c0,-69.656317 -58.47975,-126.34047 -130.367998,-126.34047c-71.842641,0 -130.356596,56.684154 -130.356596,126.34047l-0.068411,404.391161c-67.1109,42.607036 -108.556385,115.279878 -108.556385,193.532739c0,127.655366 107.222376,231.576314 238.96999,231.576314c131.804623,0 238.947186,-103.920948 238.947186,-231.576314c0.022804,-78.252861 -41.422681,-150.837306 -108.408162,-193.444343zm-130.516221,378.358439c-105.204261,0 -190.786051,-82.959966 -190.786051,-184.914096c0,-66.275157 36.953182,-127.843208 96.367878,-160.803994l12.131498,-6.718122l0,-13.53569l0.068411,-416.877144c0,-43.944031 36.884771,-79.678252 82.218264,-79.678252c45.344895,0 82.286675,35.734221 82.286675,79.678252l0,10.010886l-54.956599,0c-10.193195,0 -18.505095,7.999869 -18.505095,17.955507c0,9.878291 8.311901,17.922358 18.505095,17.922358l54.956599,0l0,47.170497l-54.956599,0c-10.193195,0 -18.505095,7.97777 -18.505095,17.933408c0,9.889341 8.311901,17.944457 18.505095,17.944457l54.956599,0l0,47.148398l-54.956599,0c-10.193195,0 -18.505095,8.066166 -18.505095,17.955507c0,9.922489 8.311901,17.922358 18.505095,17.922358l54.956599,0l0.045607,204.935867l0,13.601987l12.177105,6.640775c59.403294,32.949736 96.367878,94.528837 96.367878,160.803994c0,101.94308 -85.615996,184.903046 -190.877265,184.903046z"/>
    <path stroke="null" id="svg_4" d="m575.789876,622.787928c-23.077211,-12.817469 -37.306637,-36.585036 -37.306637,-62.286272l-0.148223,-132.064133c0,-17.248336 -14.468864,-31.259156 -32.244245,-31.259156c-17.798185,0 -32.221441,14.01082 -32.221441,31.259156l-0.079812,131.986787c0,25.778583 -14.25223,49.546149 -37.318039,62.363619c-43.953877,24.231647 -71.215543,69.722614 -71.215543,118.683137c0,75.258435 63.177285,136.483951 140.846237,136.483951c77.725961,0 140.92605,-61.225516 140.92605,-136.483951c-0.011402,-48.872127 -27.364281,-94.440441 -71.238346,-118.683137z"/>
   </g>
  </g>
 </g>
</svg>