<svg width="1000" height="1000" xmlns="http://www.w3.org/2000/svg">
 <title>A__22</title>

 <g>
  <title>background</title>
  <rect fill="none" id="canvas_background" height="1002" width="1002" y="-1" x="-1"/>
 </g>
 <g>
  <title>Layer 1</title>
  <path stroke="null" id="svg_1" d="m594.854699,117.669055a107.216717,101.992373 0 0 0 -185.700089,0l-365.773818,602.667545a107.213668,101.989472 0 0 0 92.844945,152.986559l731.547635,0a107.213668,101.989472 0 0 0 92.844945,-152.986559l-365.763618,-602.667545zm320.239513,679.659387a54.090137,51.45449 0 0 1 -47.32084,25.989354l-731.547635,0a54.64636,51.983609 0 0 1 -47.32084,-77.977564l365.773818,-602.668245a54.650355,51.98741 0 0 1 94.652404,0l365.763093,602.667945a54.104122,51.467793 0 0 1 0,51.98851zm-439.378311,-212.387838l0,-291.870241a26.283654,25.002932 0 0 1 52.567308,0l0,291.870041a26.283654,25.002932 0 1 1 -52.567308,0l0,0.0002zm66.499675,129.096478a40.213813,38.254316 0 1 1 -40.213498,-38.254616a40.213182,38.253716 0 0 1 40.213498,38.254416l0,0.0002z"/>
 </g>
</svg>